<svg width="192" height="48" viewBox="0 0 192 48" fill="none" xmlns="http://www.w3.org/2000/svg">
<path d="M49.5852 13.8796H53.8442V30.1069H61.7377V33.7694H49.5852V13.8796Z" fill="#2E343F"/>
<path d="M63.655 30.3911C63.003 29.1895 62.6747 27.8391 62.7024 26.4723C62.6747 25.1056 63.003 23.7551 63.655 22.5536C64.275 21.4309 65.2139 20.5172 66.3529 19.9278C67.6152 19.3192 68.9984 19.0032 70.3997 19.0032C71.801 19.0032 73.1843 19.3192 74.4465 19.9278C75.5839 20.5195 76.5221 21.4327 77.1444 22.5536C77.7933 23.7562 78.1201 25.1061 78.0931 26.4723C78.1235 27.844 77.7965 29.2 77.1444 30.4071C76.5179 31.5208 75.5804 32.4277 74.4465 33.0169C73.1843 33.6254 71.801 33.9415 70.3997 33.9415C68.9984 33.9415 67.6152 33.6254 66.3529 33.0169C65.2139 32.4275 64.275 31.5137 63.655 30.3911ZM74.0342 26.4723C74.0793 25.3726 73.7253 24.2936 73.0375 23.4342C72.7138 23.0552 72.308 22.7548 71.851 22.5558C71.394 22.3568 70.8977 22.2643 70.3997 22.2854C69.902 22.2654 69.4064 22.36 68.9511 22.562C68.4958 22.764 68.0931 23.0679 67.7739 23.4502C67.0902 24.311 66.7418 25.3904 66.7932 26.4884C66.7418 27.5863 67.0902 28.6657 67.7739 29.5265C68.0931 29.9088 68.4958 30.2127 68.9511 30.4147C69.4064 30.6167 69.902 30.7113 70.3997 30.6913C70.9003 30.7085 71.3982 30.6111 71.8554 30.4064C72.3126 30.2017 72.7169 29.8953 73.0375 29.5105C73.7253 28.6511 74.0793 27.5721 74.0342 26.4723Z" fill="#2E343F"/>
<path d="M80.6908 30.3911C80.0388 29.1896 79.7105 27.8391 79.7382 26.4724C79.7105 25.1056 80.0388 23.7551 80.6908 22.5536C81.3109 21.431 82.2497 20.5172 83.3887 19.9278C84.6503 19.3193 86.0329 19.0033 87.4335 19.0033C88.8342 19.0033 90.2168 19.3193 91.4783 19.9278C92.6174 20.5172 93.5562 21.431 94.1762 22.5536C94.8282 23.7551 95.1565 25.1056 95.1289 26.4724C95.1599 27.8446 94.8315 29.201 94.1762 30.4071C93.552 31.5225 92.6138 32.43 91.4783 33.0169C90.2168 33.6254 88.8342 33.9414 87.4335 33.9414C86.0329 33.9414 84.6503 33.6254 83.3887 33.0169C82.2497 32.4275 81.3109 31.5137 80.6908 30.3911ZM91.0701 26.4724C91.1196 25.3746 90.7714 24.2958 90.0894 23.4342C89.7541 23.0673 89.346 22.7742 88.8911 22.5736C88.4363 22.3731 87.9446 22.2695 87.4475 22.2695C86.9504 22.2695 86.4588 22.3731 86.0039 22.5736C85.5491 22.7742 85.141 23.0673 84.8057 23.4342C84.1308 24.2986 83.7898 25.3771 83.845 26.4724C83.7943 27.5696 84.1411 28.6483 84.8217 29.5105C85.157 29.8774 85.5651 30.1705 86.0199 30.3711C86.4748 30.5716 86.9664 30.6752 87.4635 30.6752C87.9606 30.6752 88.4523 30.5716 88.9071 30.3711C89.362 30.1705 89.7701 29.8774 90.1054 29.5105C90.7817 28.6467 91.1242 27.5681 91.0701 26.4724Z" fill="#2E343F"/>
<path d="M101.345 13.8796V25.3916L107.081 19.1753H111.568L106.365 24.8832L111.864 33.7694H107.225L103.535 27.8653L101.345 30.219V33.7694H97.3424V13.8796H101.345Z" fill="#2E343F"/>
<path d="M116.792 30.4751C117.438 30.904 118.202 31.1195 118.977 31.0916C119.668 31.1271 120.356 30.9895 120.979 30.6913C121.209 30.5874 121.402 30.418 121.536 30.2044C121.67 29.9908 121.738 29.7425 121.731 29.4905C121.744 29.3318 121.719 29.1724 121.66 29.0246C121.601 28.8768 121.509 28.7445 121.391 28.6379C121.106 28.429 120.775 28.2917 120.426 28.2376C120.026 28.1535 119.33 28.0535 118.381 27.9414C117.298 27.8112 116.227 27.593 115.179 27.2889C114.397 27.0641 113.691 26.6327 113.133 26.0401C112.598 25.407 112.324 24.5943 112.365 23.7665C112.354 22.8643 112.635 21.9827 113.165 21.2527C113.724 20.4938 114.486 19.9083 115.363 19.5636C116.401 19.1496 117.512 18.9468 118.629 18.9671C120.617 18.9858 122.218 19.4115 123.433 20.244C124.016 20.6209 124.499 21.1327 124.843 21.736C125.186 22.3394 125.38 23.0166 125.406 23.7104H121.603C121.573 23.4342 121.479 23.1688 121.329 22.9348C121.179 22.7008 120.977 22.5046 120.739 22.3615C120.139 21.9899 119.442 21.8071 118.737 21.8371C118.1 21.8076 117.467 21.9544 116.908 22.2614C116.699 22.3694 116.524 22.5324 116.401 22.7328C116.279 22.9331 116.213 23.1632 116.212 23.3982C116.202 23.5465 116.231 23.6947 116.296 23.8285C116.36 23.9624 116.458 24.0774 116.58 24.1628C116.872 24.3526 117.201 24.4793 117.544 24.535C117.945 24.6071 118.605 24.6951 119.546 24.7872C121.515 25.0167 123.026 25.4383 124.077 26.0521C125.126 26.6685 125.65 27.7212 125.65 29.2183C125.664 30.1218 125.369 31.003 124.814 31.716C124.204 32.4728 123.398 33.0475 122.484 33.3772C121.38 33.7856 120.21 33.9838 119.033 33.9616C117.008 33.9616 115.362 33.5119 114.094 32.6126C113.491 32.2033 112.995 31.6559 112.647 31.016C112.299 30.3761 112.109 29.6623 112.093 28.9341H115.867C115.894 29.2442 115.992 29.5441 116.152 29.8111C116.312 30.0781 116.531 30.3052 116.792 30.4751Z" fill="#2E343F"/>
<path d="M134.876 33.9415C133.495 33.9728 132.128 33.6548 130.902 33.0169C129.786 32.4202 128.873 31.5065 128.276 30.3911C127.645 29.1827 127.329 27.8351 127.355 26.4724C127.325 25.1054 127.642 23.753 128.276 22.5416C128.879 21.4284 129.798 20.5188 130.918 19.9278C132.153 19.2885 133.53 18.9705 134.921 19.0032C136.871 19.0032 138.46 19.5008 139.688 20.4962C140.943 21.5339 141.756 23.0111 141.961 24.6271H137.803C137.664 23.9564 137.305 23.3517 136.782 22.9099C136.245 22.4734 135.568 22.2459 134.876 22.2694C134.398 22.2533 133.922 22.3504 133.488 22.5528C133.054 22.7552 132.674 23.0572 132.379 23.4342C131.723 24.3074 131.392 25.3816 131.442 26.4724C131.392 27.5631 131.723 28.6373 132.379 29.5105C132.672 29.8905 133.052 30.1955 133.486 30.4008C133.92 30.606 134.396 30.7056 134.876 30.6913C135.582 30.7161 136.274 30.4843 136.822 30.0388C137.356 29.5783 137.713 28.9454 137.831 28.2496H141.949C141.762 29.8833 140.954 31.3824 139.692 32.4365C138.451 33.4399 136.846 33.9415 134.876 33.9415Z" fill="#2E343F"/>
<path d="M144.287 30.3911C143.635 29.1896 143.307 27.8391 143.334 26.4724C143.307 25.1056 143.635 23.7551 144.287 22.5536C144.907 21.431 145.846 20.5172 146.985 19.9278C148.246 19.3193 149.629 19.0033 151.03 19.0033C152.43 19.0033 153.813 19.3193 155.075 19.9278C156.214 20.5172 157.152 21.431 157.772 22.5536C158.424 23.7551 158.753 25.1056 158.725 26.4724C158.756 27.8446 158.428 29.201 157.772 30.4071C157.154 31.5197 156.223 32.4269 155.095 33.0169C153.833 33.6254 152.45 33.9414 151.05 33.9414C149.649 33.9414 148.266 33.6254 147.005 33.0169C145.858 32.4307 144.912 31.5166 144.287 30.3911ZM154.666 26.4724C154.716 25.3746 154.368 24.2958 153.686 23.4342C153.35 23.0673 152.942 22.7742 152.487 22.5736C152.032 22.3731 151.541 22.2695 151.044 22.2695C150.547 22.2695 150.055 22.3731 149.6 22.5736C149.145 22.7742 148.737 23.0673 148.402 23.4342C147.721 24.2964 147.374 25.3751 147.425 26.4724C147.374 27.5696 147.721 28.6483 148.402 29.5105C148.737 29.8774 149.145 30.1705 149.6 30.3711C150.055 30.5716 150.547 30.6752 151.044 30.6752C151.541 30.6752 152.032 30.5716 152.487 30.3711C152.942 30.1705 153.35 29.8774 153.686 29.5105C154.369 28.6494 154.719 27.5706 154.67 26.4724H154.666Z" fill="#2E343F"/>
<path d="M174.684 33.7694H171.138L170.765 32.0082C170.253 32.6444 169.598 33.1509 168.853 33.4868C168.108 33.8227 167.295 33.9784 166.478 33.9415C165.712 33.9708 164.947 33.8463 164.23 33.5755C163.512 33.3046 162.856 32.8929 162.3 32.3644C161.232 31.3157 160.698 29.5598 160.698 27.0968V19.1753H164.701V26.6124C164.701 27.9414 164.933 28.9381 165.398 29.6105C165.639 29.9482 165.963 30.2182 166.339 30.3948C166.714 30.5714 167.129 30.6487 167.543 30.6192C167.993 30.6395 168.441 30.5477 168.847 30.3521C169.253 30.1565 169.604 29.8632 169.869 29.4984C170.421 28.7499 170.693 27.7012 170.693 26.3603V19.1753H174.696L174.684 33.7694Z" fill="#2E343F"/>
<path d="M176.105 22.5536V19.1753H178.507V15.0804H182.51V19.1753H185.832V22.5536H182.51V28.9581C182.474 29.3554 182.589 29.7516 182.834 30.0668C182.985 30.1939 183.159 30.2895 183.348 30.3479C183.536 30.4063 183.734 30.4265 183.931 30.4071H186V33.7854H182.714C179.928 33.7854 178.536 32.3938 178.539 29.6105V22.5536H176.105Z" fill="#2E343F"/>
<path d="M26.7846 10.8L6 22.8V15.6L20.5538 7.19995L26.7846 10.8Z" fill="#2E343F"/>
<path d="M35.1077 15.6V19.7538L9.6 34.4769L6 32.3999V28.4923L31.7077 13.6461L35.1077 15.6Z" fill="#2E343F"/>
<path d="M14.5231 37.323L35.1077 25.4461V32.3999L20.5538 40.7999L14.5231 37.323Z" fill="#2E343F"/>
</svg>
