<svg width="16" height="16" viewBox="0 0 16 16" fill="none" xmlns="http://www.w3.org/2000/svg">
<path d="M5.33331 6V4.66667C5.33331 3.19391 6.52722 2 7.99998 2C9.47274 2 10.6666 3.19391 10.6666 4.66667V6M5.46665 14H10.5333C11.2801 14 11.6534 14 11.9386 13.8547C12.1895 13.7268 12.3935 13.5229 12.5213 13.272C12.6666 12.9868 12.6666 12.6134 12.6666 11.8667V8.13333C12.6666 7.3866 12.6666 7.01323 12.5213 6.72801C12.3935 6.47713 12.1895 6.27316 11.9386 6.14532C11.6534 6 11.28 6 10.5333 6H5.46665C4.71991 6 4.34654 6 4.06133 6.14532C3.81044 6.27316 3.60647 6.47713 3.47864 6.72801C3.33331 7.01323 3.33331 7.3866 3.33331 8.13333V11.8667C3.33331 12.6134 3.33331 12.9868 3.47864 13.272C3.60647 13.5229 3.81044 13.7268 4.06133 13.8547C4.34654 14 4.71991 14 5.46665 14Z" stroke="#437EF7" stroke-width="2" stroke-linecap="round"/>
</svg>
